<svg width="20" height="21" viewBox="0 0 20 21" fill="none" xmlns="http://www.w3.org/2000/svg">
<path d="M20 10.125C20 4.625 15.5 0.125 10 0.125C4.5 0.125 0 4.625 0 10.125C0 14.825 3.20001 18.825 7.60001 19.825V13.125H5.5V10.025H7.60001V8.72498C7.60001 5.32498 9.1 3.72498 12.5 3.72498C13.1 3.72498 14.2 3.82499 14.7 3.92499V6.72498C14.5 6.72498 14.1 6.72498 13.5 6.72498C11.9 6.72498 11.2 7.32499 11.2 8.92499V10.025H14.5L13.9 13.125H11.2V20.025C16.1 19.525 20 15.225 20 10.125Z" fill="white"/>
</svg>
