<svg width="30" height="24" viewBox="0 0 30 24" fill="none" xmlns="http://www.w3.org/2000/svg">
<path d="M0 2.5C0 1.11929 1.11929 0 2.5 0H27.5C28.8807 0 30 1.11929 30 2.5C30 3.88071 28.8807 5 27.5 5H2.5C1.11929 5 0 3.88071 0 2.5Z" fill="white"/>
<path d="M0 12.5C0 11.1193 1.11929 10 2.5 10H23.5C24.8807 10 26 11.1193 26 12.5C26 13.8807 24.8807 15 23.5 15H2.5C1.11929 15 0 13.8807 0 12.5Z" fill="white"/>
<path d="M0 21.5C0 20.1193 1.11929 19 2.5 19H25.5C26.8807 19 28 20.1193 28 21.5C28 22.8807 26.8807 24 25.5 24H2.5C1.11929 24 0 22.8807 0 21.5Z" fill="white"/>
</svg>
