<svg width="20" height="21" viewBox="0 0 20 21" fill="none" xmlns="http://www.w3.org/2000/svg">
<path d="M5.97015 0.0751953C4.87562 0.174698 4.17911 0.2742 3.58209 0.572708C2.88558 0.871215 2.38808 1.16967 1.79106 1.76669C1.19405 2.3637 0.895528 2.86126 0.597021 3.55778C0.398016 4.1548 0.199011 4.95078 0.0995085 5.9458C0.0995085 7.04033 0 7.33887 0 10.0254C0 12.712 6.07167e-06 13.11 0.0995085 14.105C0.199011 15.1995 0.298513 15.8961 0.597021 16.4931C0.895528 17.1896 1.19405 17.6871 1.79106 18.2841C2.38808 18.8811 2.88558 19.1797 3.58209 19.4782C4.17911 19.6772 4.97512 19.8762 5.97015 19.9757C7.06467 19.9757 7.36319 20.0752 10.0498 20.0752C12.7363 20.0752 13.1343 20.0752 14.1294 19.9757C15.2239 19.8762 15.9204 19.7767 16.5174 19.4782C17.2139 19.1797 17.7115 18.8811 18.3085 18.2841C18.9055 17.6871 19.204 17.1896 19.403 16.4931C19.602 15.8961 19.801 15.1 19.9005 14.105C19.9005 13.0105 20 12.712 20 10.0254C20 7.33887 20 6.94083 19.9005 5.9458C19.801 4.95078 19.7015 4.1548 19.403 3.55778C19.1045 2.86126 18.806 2.3637 18.209 1.76669C17.612 1.16967 17.1144 0.871191 16.4179 0.672186C15.8209 0.473181 15.0249 0.274176 14.0299 0.174673C12.9353 0.174673 12.6368 0.0751953 9.95025 0.0751953C7.36318 0.0751953 7.06467 0.0751953 5.97015 0.0751953ZM6.16916 18.0851C5.17414 18.0851 4.67663 17.8861 4.27862 17.7866C3.78111 17.5876 3.48259 17.3886 3.08458 17.0901C2.68657 16.7916 2.48758 16.3936 2.28857 15.9956C2.18907 15.5976 1.99005 15.1 1.99005 14.105C1.99005 13.0105 1.89057 12.712 1.89057 10.1249C1.89057 7.53786 1.89055 7.13985 1.99005 6.14482C1.99005 5.1498 2.18907 4.65226 2.28857 4.25425C2.48758 3.75674 2.68657 3.45828 2.98507 3.06027C3.28358 2.66226 3.6816 2.46321 4.07961 2.2642C4.47762 2.1647 4.97512 1.96571 5.97015 1.96571C7.06467 1.8662 7.36318 1.86623 9.95025 1.86623C12.5373 1.86623 12.9353 1.8662 13.9303 1.96571C14.9254 1.96571 15.4229 2.1647 15.8209 2.2642C16.3184 2.46321 16.6169 2.66222 17.0149 2.96073C17.4129 3.25924 17.612 3.65728 17.811 4.05529C17.9105 4.4533 18.1095 4.95078 18.1095 5.9458C18.209 7.04033 18.209 7.33884 18.209 9.9259C18.209 12.6125 18.209 12.911 18.1095 13.906C18.1095 14.901 17.9105 15.3986 17.811 15.7966C17.612 16.2941 17.4129 16.5926 17.1144 16.9906C16.8159 17.3886 16.4179 17.5876 16.0199 17.7866C15.6219 17.8861 15.1244 18.0851 14.1294 18.0851C13.0348 18.0851 12.7363 18.1846 10.1493 18.1846C7.5622 18.1846 7.16419 18.1846 6.16916 18.0851ZM14.2289 4.65228C14.2289 5.3488 14.7264 5.84633 15.4229 5.84633C16.1194 5.84633 16.6169 5.3488 16.6169 4.65228C16.6169 3.95577 16.1194 3.45824 15.4229 3.45824C14.7264 3.45824 14.2289 4.05527 14.2289 4.65228ZM4.97512 10.0254C4.97512 12.8115 7.26369 15.1 10.0498 15.1C12.8358 15.1 15.1244 12.8115 15.1244 10.0254C15.1244 7.23937 12.8358 4.95078 10.0498 4.95078C7.26369 4.95078 4.97512 7.13987 4.97512 10.0254ZM6.76619 10.0254C6.76619 8.2344 8.25871 6.74181 10.0498 6.74181C11.8408 6.74181 13.3334 8.2344 13.3334 10.0254C13.3334 11.8165 11.8408 13.309 10.0498 13.309C8.25871 13.309 6.76619 11.8165 6.76619 10.0254Z" fill="white"/>
</svg>
