<svg width="144" height="47" viewBox="0 0 144 47" fill="none" xmlns="http://www.w3.org/2000/svg">
<path d="M128.23 26.996H143.369V22.109H135.116V18.8742H141.663V14.0231H135.116V11.2367H143.369V6.34972H128.23V26.996ZM105.147 26.996H111.08V16.7087L119.06 26.996H124.549V6.35196H118.615V16.6392L110.636 6.35196H105.147V26.996ZM89.632 19.6678L91.7802 13.4739L93.9283 19.6678H89.632ZM87.0063 26.996L88.097 23.9674H95.4611L96.5519 26.996H103.405L94.9146 6.35196H88.7768L80.2864 26.996H87.0063ZM69.5835 27.5811C75.2104 27.5811 79.9821 24.4494 79.9821 17.4642V6.35196H73.1622V17.5001C73.1622 20.2865 72.207 22.0754 69.6501 22.0754C67.0932 22.0754 66.138 20.2865 66.138 17.5001V6.35196H59.1826V17.4664C59.1826 24.4516 63.9565 27.5833 69.5812 27.5833" fill="#16254C"/>
<path d="M12.0168 3.86589C15.7622 7.55577 17.2728 13.6712 15.8577 18.8361C15.3601 20.1924 15.4845 21.7257 16.2042 22.9833C16.8062 24.0369 17.9903 25.0614 19.2054 25.2788C19.352 25.3147 19.4986 25.3461 19.6475 25.3707C20.4006 25.5501 21.1403 25.8415 21.8489 26.2562C22.5509 26.6642 23.2596 27.2583 23.8016 27.8165C23.9149 27.9532 24.0348 28.0877 24.1615 28.211C25.0345 29.0629 26.223 29.5874 27.5336 29.5874C28.8443 29.5874 30.0305 29.0629 30.9058 28.211C31.0324 28.0877 31.1524 27.9555 31.2657 27.8165C31.8077 27.2583 32.5163 26.6642 33.2183 26.2562C33.927 25.8438 34.6689 25.5523 35.4198 25.3707C35.5686 25.3461 35.7152 25.3169 35.8619 25.2788C37.077 25.0614 38.261 24.0347 38.863 22.9833C39.5828 21.7257 39.7072 20.1924 39.2096 18.8361C37.7901 13.66 39.3095 7.53111 43.0727 3.84347C44.1079 4.50702 45.0053 5.46872 45.5651 6.44611C45.6984 6.68149 45.8206 6.92584 45.9295 7.17692C46.0339 7.41678 46.125 7.66561 46.2049 7.92341C46.6048 9.21464 46.6248 10.5709 46.3116 11.8375V11.8419L46.2849 11.9473L46.256 12.0571C46.2071 12.2342 46.1472 12.4158 46.0783 12.5996L46.0583 12.6669C46.0094 12.8485 45.9606 13.0368 45.9139 13.2341C45.865 13.4381 45.8206 13.6353 45.7806 13.8214C45.5674 14.8593 45.4252 15.9779 45.4252 17.0069L45.4274 17.0091C45.4274 17.7444 45.4807 18.4528 45.5785 19.1343C45.594 19.2441 45.614 19.3562 45.6318 19.4728C45.7295 20.0489 45.8628 20.6116 46.0272 21.1608L46.045 21.2191L46.0783 21.3087C46.1094 21.3939 46.0983 21.3625 46.1094 21.3939C46.1672 21.5598 46.2138 21.7145 46.2538 21.858L46.276 21.923C46.3582 22.1494 46.4204 22.3893 46.4648 22.6336C46.5115 22.8869 46.5381 23.147 46.5493 23.4115C46.607 24.817 46.2049 26.3257 45.5607 27.4533C45.423 27.6932 45.2764 27.9196 45.1164 28.1393C44.9609 28.3522 44.7943 28.5562 44.6144 28.7535C43.7058 29.7466 42.5551 30.4438 41.3088 30.8047H41.3044L41.0911 30.863C40.9068 30.9078 40.7224 30.9482 40.5336 30.9818L40.4669 30.9975H40.4647C40.2692 31.049 40.0826 31.1006 39.9071 31.1522C39.6894 31.2172 39.4984 31.2755 39.3362 31.3315C38.3477 31.6588 37.3191 32.0959 36.4261 32.6182C36.2351 32.7281 36.064 32.8335 35.9129 32.9298C35.773 33.0195 35.6086 33.1294 35.4198 33.2616C34.5845 33.8467 33.8292 34.5035 33.1606 35.2231L33.1339 35.2523L33.1161 35.2702C33.0739 35.324 33.0606 35.3419 33.0584 35.3419L32.9962 35.4182C32.914 35.5146 32.8296 35.6087 32.7429 35.7029L32.583 35.8643C32.4053 36.0436 32.2165 36.2117 32.0121 36.3754C31.801 36.5457 31.5922 36.6982 31.3856 36.8304C30.2727 37.5433 28.9509 37.958 27.5247 37.958C26.554 37.9603 25.6276 37.7675 24.7813 37.4133C24.6657 37.364 24.5302 37.3034 24.377 37.2272C23.6905 36.8887 23.0641 36.4449 22.5243 35.9158L22.5176 35.9091C22.431 35.8262 22.3399 35.732 22.251 35.6356C22.1688 35.5437 22.08 35.4406 21.9911 35.3307L21.96 35.2926L21.94 35.2724H21.9378C21.8045 35.1379 21.669 35.0012 21.5313 34.8689C21.4091 34.7501 21.2625 34.6156 21.0914 34.4609C20.3139 33.7615 19.4231 33.0778 18.5368 32.56V32.5577H18.5323C18.359 32.4568 18.1836 32.3582 18.0103 32.2663C17.8126 32.1609 17.6349 32.0713 17.4794 31.9973C16.5597 31.5602 15.62 31.2306 14.667 31.0042L14.6115 30.9952L14.5115 30.9773L14.4226 30.9616H14.4204C14.2871 30.937 14.1316 30.9011 13.9539 30.8562L13.8917 30.8428H13.8895C13.6518 30.8002 13.4185 30.7352 13.1831 30.6523C12.9365 30.5648 12.6988 30.4595 12.4722 30.3407C11.2371 29.6883 10.1441 28.5831 9.4999 27.4578V27.4488H9.49546C9.35551 27.2045 9.22444 26.9355 9.10448 26.644C8.98675 26.3616 8.889 26.0814 8.81125 25.8012C8.4025 24.3306 8.45582 22.7479 8.98675 21.2975L9.00674 21.2325C9.05561 21.0487 9.10448 20.8604 9.15113 20.6654C9.20001 20.4614 9.24443 20.2619 9.2822 20.0758C9.49768 19.0379 9.63985 17.9193 9.63985 16.8925H9.63541C9.63541 16.1573 9.58432 15.4466 9.48435 14.7652C9.4688 14.6598 9.44436 14.5096 9.40882 14.3123C9.37328 14.124 9.34662 13.9738 9.32218 13.864C9.23999 13.4784 9.14447 13.104 9.03562 12.7364L9.01562 12.6781H9.0134L8.98008 12.5862L8.94898 12.501C8.89567 12.3463 8.8468 12.1917 8.80459 12.037L8.78015 11.972C8.7024 11.7478 8.6402 11.5102 8.59577 11.2636C8.54912 11.0125 8.52024 10.7502 8.51136 10.4857C8.4536 9.08014 8.85568 7.57146 9.4999 6.44163C9.6554 6.17038 9.81979 5.91931 9.99306 5.69065C10.1663 5.45975 10.3618 5.23334 10.5729 5.01589C11.0038 4.56979 11.4903 4.18197 12.0168 3.8614" fill="#00486E"/>
<path d="M27.4742 46.0665C24.5308 46.0665 21.8561 44.8896 19.8924 42.9729C19.6058 42.6994 19.3348 42.3945 19.0793 42.0874C17.862 40.8343 16.267 39.4982 14.6897 38.5791C13.097 37.651 11.4331 36.9965 9.73813 36.5907C9.40269 36.5369 9.07392 36.4674 8.74736 36.3845C6.0172 35.8935 3.35146 33.589 1.9986 31.224C0.381382 28.395 0.101479 24.9494 1.21887 21.9007C1.68093 20.2082 2.03414 18.1458 2.03414 16.3076C2.03414 14.4694 1.76312 12.6693 1.2633 10.9857C1.14112 10.6696 1.03449 10.3468 0.945631 10.0173C0.283638 8.16563 0.405818 5.897 1.00561 3.89066C2.49176 -1.077 4.06233 -0.373101 8.32529 1.42028C9.15389 1.76775 9.92473 2.21161 10.6334 2.73393C10.1624 3.06346 9.7248 3.43559 9.32494 3.85031C9.07836 4.10587 8.84066 4.38384 8.61408 4.68423C8.38749 4.98462 8.18534 5.29398 8.0054 5.60558C7.21678 6.98648 6.72584 8.8359 6.79693 10.5553C6.81026 10.8983 6.8458 11.239 6.90578 11.5708C6.96354 11.8869 7.04351 12.1962 7.14792 12.4966C7.20123 12.6894 7.26121 12.8777 7.32564 13.0616H7.32786L7.3634 13.1624L7.36784 13.1736L7.38561 13.223C7.48336 13.5525 7.56777 13.8843 7.63886 14.2183C7.6744 14.3887 7.70106 14.5187 7.71883 14.6128C7.73438 14.7003 7.7566 14.8348 7.78103 15.0141C7.87211 15.6373 7.91876 16.2672 7.91876 16.8994H7.91654C7.91654 17.8185 7.78992 18.8183 7.59887 19.7419C7.55889 19.9369 7.5189 20.114 7.48114 20.2777C7.44337 20.4346 7.40339 20.5893 7.3634 20.7417C6.71696 22.5172 6.65254 24.4585 7.15458 26.2608C7.25455 26.6218 7.37451 26.9692 7.51224 27.301C7.64775 27.6238 7.80769 27.9533 8.00096 28.2918L8.00318 28.2986C8.79179 29.6772 10.1313 31.0312 11.6441 31.8293C11.9529 31.9929 12.2617 32.1319 12.5683 32.2418C12.8793 32.3516 13.1947 32.439 13.5079 32.4996C13.6679 32.5399 13.85 32.578 14.0544 32.6184L14.1699 32.6408H14.1721L14.241 32.652C15.0807 32.8537 15.9049 33.1407 16.7068 33.524C16.889 33.6092 17.0445 33.6877 17.1778 33.7594C17.3355 33.8423 17.4888 33.9275 17.642 34.0172V34.0194H17.6443C18.4284 34.4745 19.2215 35.0865 19.9235 35.7187C20.0412 35.824 20.1767 35.9518 20.3233 36.093C20.4433 36.2096 20.5566 36.3217 20.6632 36.4293C20.7565 36.5436 20.8587 36.6602 20.9698 36.7812C21.0786 36.9023 21.1964 37.0234 21.3208 37.1422C21.9872 37.79 22.7536 38.3348 23.5889 38.7472C23.731 38.819 23.8999 38.893 24.0909 38.9737C25.1306 39.4063 26.2702 39.6462 27.4653 39.6462V39.6484C29.2091 39.6484 30.8397 39.1351 32.2148 38.2496C32.4902 38.0725 32.7479 37.8864 32.9856 37.6959C33.1922 37.53 33.3966 37.3484 33.5921 37.1601C33.7054 37.0816 33.7809 36.9897 33.8342 36.918C33.9608 36.7857 34.083 36.6512 34.2007 36.5122H34.203L34.2696 36.4293V36.4226C34.2963 36.3934 34.3118 36.3777 34.3185 36.3688L34.3251 36.3598C34.3251 36.3598 34.2896 36.4069 34.3429 36.3419C34.9272 35.7187 35.5803 35.1515 36.3 34.6494C36.4178 34.5687 36.5644 34.47 36.7399 34.3579C36.9065 34.2526 37.0575 34.1584 37.193 34.08C37.9705 33.6249 38.8924 33.2371 39.7899 32.9389C39.9943 32.8717 40.1676 32.8156 40.3097 32.773C40.4741 32.7237 40.6274 32.6811 40.7651 32.6453C40.9873 32.6049 41.2094 32.5578 41.4271 32.504L41.556 32.4682H41.5582C41.6159 32.4525 41.6626 32.4413 41.6893 32.4323H41.6937C43.2287 31.9907 44.646 31.1276 45.7678 29.9014C45.9833 29.6638 46.1921 29.4127 46.3876 29.1437C46.5809 28.8792 46.7608 28.6012 46.9274 28.3098C47.716 26.9289 48.2092 25.0817 48.1381 23.36C48.1226 23.0171 48.087 22.6763 48.0271 22.3468C47.9671 22.0172 47.8849 21.6989 47.7738 21.3918C47.7205 21.2013 47.665 21.0219 47.6072 20.856C47.5739 20.7619 47.5761 20.7641 47.5694 20.7462V20.7395L47.5428 20.6767C47.4006 20.197 47.2851 19.7038 47.1984 19.2016C47.1829 19.1052 47.1673 19.0066 47.1518 18.9035C47.0585 18.2803 47.0141 17.6526 47.0141 17.0227H47.0163C47.0163 16.0991 47.1429 15.0993 47.334 14.1757C47.3739 13.9807 47.4139 13.8036 47.4517 13.6399C47.4895 13.483 47.5294 13.3283 47.5694 13.1759C47.6472 12.9674 47.716 12.75 47.7805 12.5235C47.7894 12.4922 47.8005 12.4518 47.816 12.3935C47.8182 12.3778 47.8293 12.3397 47.8471 12.2613C48.2336 10.6965 48.207 9.02869 47.7138 7.43707C47.6205 7.13444 47.5072 6.82732 47.3739 6.5202C47.2451 6.2243 47.0963 5.92615 46.9252 5.628C46.321 4.56766 45.3924 3.52526 44.3106 2.73617C45.017 2.21833 45.7812 1.77895 46.6031 1.43149C50.8661 -0.361892 52.4366 -1.06579 53.9228 3.89963C54.5226 5.90597 54.6447 8.1746 53.9828 10.0263C53.8917 10.3558 53.785 10.6786 53.6651 10.9947C53.163 12.6782 52.892 14.4604 52.892 16.3165C52.892 18.1548 53.243 20.2171 53.7073 21.9096C54.8247 24.9584 54.5448 28.4039 52.9276 31.233C51.5747 33.6002 48.9112 35.9025 46.181 36.3934C45.8522 36.4764 45.5235 36.5459 45.188 36.5997C43.4931 37.0032 41.8292 37.6578 40.2364 38.5881C38.6592 39.5072 37.0642 40.8433 35.8468 42.0964C35.5936 42.4035 35.3204 42.7084 35.0338 42.9819C33.07 44.8963 30.3976 46.0754 27.4542 46.0754" fill="#14878C"/>
<path d="M17.4993 19.2957L17.4549 19.4347C17.1328 20.3089 17.2172 21.3155 17.6793 22.1225C18.0836 22.8309 18.8855 23.4743 19.5031 23.5841L19.6186 23.6088C19.7141 23.6334 19.8119 23.6536 19.9074 23.6693L20.0362 23.6962C20.967 23.9181 21.8623 24.279 22.6975 24.7655C23.7461 25.3775 24.5991 26.1845 25.0145 26.6104L25.1034 26.7091C25.1767 26.7987 25.2544 26.8862 25.3366 26.9646C25.9342 27.5475 26.7095 27.8636 27.5292 27.8636C28.3489 27.8636 29.1242 27.5475 29.7151 26.9713C29.8062 26.8839 29.8795 26.7987 29.9528 26.7113L30.0439 26.6104C30.4593 26.1845 31.3101 25.3775 32.3608 24.7655C33.1961 24.279 34.0914 23.9181 35.0221 23.6962L35.1532 23.6693C35.251 23.6536 35.3465 23.6334 35.442 23.6088L35.5575 23.5841C36.1751 23.4743 36.9748 22.8309 37.3791 22.1225C37.8412 21.3155 37.9256 20.3089 37.6035 19.4347L37.559 19.2957C36.5283 15.5363 36.8748 11.4384 38.3543 7.89427C37.6923 8.16328 36.7327 8.6318 35.4264 9.59798C34.429 10.3355 33.6204 11.2187 33.0184 12.2186C31.9366 14.0187 31.8544 15.7 31.8544 16.173C31.8544 16.9015 31.9299 17.5763 32.0721 18.1815C32.1587 18.5537 32.1165 18.7666 32.0943 18.8115C32.0343 18.9325 31.9721 18.9998 31.8477 19.076C31.5811 19.2419 31.2079 19.3562 30.8369 19.4705C30.4704 19.5849 30.1238 19.6902 29.8351 19.8606C29.3974 20.1184 28.9265 20.495 28.5377 20.894C28.5111 20.9209 28.4844 20.9501 28.4622 20.977C28.44 21.0039 28.4178 21.0285 28.3911 21.0554C28.2134 21.228 27.9824 21.3244 27.7402 21.3244H27.3137C27.0716 21.3244 26.8405 21.228 26.6584 21.0532C26.6339 21.0308 26.614 21.0039 26.5917 20.9792C26.5651 20.9478 26.5362 20.9164 26.514 20.8918C26.1275 20.495 25.6565 20.1184 25.2189 19.8606C24.9301 19.6902 24.5835 19.5849 24.2081 19.4683C23.846 19.3562 23.4706 19.2419 23.2063 19.076C23.0796 18.9975 23.0174 18.9303 22.9574 18.8092C22.9352 18.7644 22.8908 18.5514 22.9797 18.1793C23.1196 17.5808 23.1951 16.8858 23.1974 16.1685C23.1974 15.6955 23.1152 14.0142 22.0333 12.2163C21.4313 11.2143 20.6205 10.3333 19.6231 9.59574C18.3168 8.62955 17.3572 8.15879 16.6952 7.89203C18.1747 11.4362 18.5234 15.5363 17.4927 19.2934" fill="#16254C"/>
<path d="M142.8 31.0087H141.663C141.725 30.594 141.983 30.4191 142.283 30.4191C142.651 30.4191 142.86 30.6859 142.798 31.0087M143.5 32.3605L143.302 32.0018C143.111 32.1497 142.822 32.2685 142.529 32.2685C141.805 32.2685 141.621 31.8157 141.632 31.3943H143.402C143.427 31.3068 143.444 31.1454 143.444 31.0289C143.444 30.3833 142.94 29.9618 142.265 29.9618C141.59 29.9618 140.925 30.5021 140.925 31.3562C140.925 32.2103 141.496 32.7886 142.314 32.7886C142.836 32.7886 143.247 32.6093 143.5 32.3605ZM140.625 32.5331L140.552 32.1744C140.465 32.2372 140.35 32.2977 140.172 32.2977C139.946 32.2977 139.872 32.1677 139.872 31.8628V30.5043H140.523V30.0335H139.872V29.3027L139.159 29.3946V30.0335H138.777V30.5043H139.159V31.9054C139.159 32.4994 139.448 32.7864 139.908 32.7864C140.21 32.7864 140.485 32.6631 140.628 32.5331M138.524 31.8695C138.524 31.5108 138.242 31.1813 137.542 31.0334C137.26 30.9661 137.076 30.8854 137.076 30.7038C137.076 30.5424 137.218 30.4438 137.507 30.4438C137.771 30.4438 138.046 30.5312 138.275 30.6679L138.391 30.1972C138.304 30.1479 137.924 29.9551 137.487 29.9551C136.767 29.9551 136.442 30.3519 136.442 30.7733C136.442 31.1522 136.676 31.4996 137.327 31.6409C137.689 31.7283 137.891 31.7955 137.891 31.9883C137.891 32.2125 137.693 32.2977 137.411 32.2977C137.018 32.2977 136.691 32.1296 136.478 31.9995L136.362 32.495C136.474 32.5622 136.878 32.7976 137.424 32.7976C138.106 32.7976 138.524 32.4434 138.524 31.8673M135.298 31.0087H134.161C134.223 30.594 134.481 30.4191 134.781 30.4191C135.15 30.4191 135.358 30.6859 135.296 31.0087M135.998 32.3605L135.8 32.0018C135.609 32.1497 135.321 32.2685 135.027 32.2685C134.303 32.2685 134.119 31.8157 134.13 31.3943H135.898C135.923 31.3068 135.94 31.1454 135.94 31.0289C135.94 30.3833 135.436 29.9618 134.761 29.9618C134.085 29.9618 133.421 30.5021 133.421 31.3562C133.421 32.2103 133.992 32.7886 134.81 32.7886C135.332 32.7886 135.743 32.6093 135.996 32.3605M132.066 31.7911C131.931 32.0444 131.649 32.2551 131.322 32.2551C130.922 32.2551 130.584 31.9502 130.584 31.3741C130.584 30.798 130.922 30.4931 131.322 30.4931C131.646 30.4931 131.931 30.7038 132.066 30.9571V31.7911ZM133.081 32.6519V32.3784C133.039 32.403 132.995 32.4165 132.939 32.4165C132.835 32.4165 132.779 32.3492 132.779 32.1878V28.9015L132.066 28.9934V30.3833C131.833 30.1053 131.475 29.9618 131.12 29.9618C130.4 29.9618 129.874 30.5693 129.874 31.3763C129.874 32.1834 130.402 32.7886 131.12 32.7886C131.495 32.7886 131.875 32.6272 132.084 32.3425C132.146 32.6407 132.348 32.7774 132.673 32.7774C132.844 32.7774 133.017 32.7102 133.079 32.6541M129.623 30.6612V29.9618C129.174 29.9618 128.787 30.2151 128.634 30.5267L128.603 29.982L127.952 30.0694V32.7169H128.665V31.253C128.665 30.7935 129.138 30.5469 129.623 30.6635M126.721 31.3741C126.721 31.9188 126.408 32.2865 125.935 32.2865C125.462 32.2865 125.142 31.9211 125.142 31.3741C125.142 30.8271 125.455 30.4617 125.935 30.4617C126.415 30.4617 126.721 30.8338 126.721 31.3741ZM127.423 31.3741C127.423 30.5671 126.79 29.9349 125.937 29.9349C125.084 29.9349 124.444 30.5671 124.444 31.3741C124.444 32.1811 125.077 32.8133 125.937 32.8133C126.797 32.8133 127.423 32.1878 127.423 31.3741ZM123.885 32.7146V28.9956H123.216V31.4503L121.288 28.9956H120.766V32.7146H121.434V30.26L123.363 32.7146H123.885ZM118.307 31.3741C118.307 31.9188 117.993 32.2865 117.52 32.2865C117.047 32.2865 116.727 31.9211 116.727 31.3741C116.727 30.8271 117.04 30.4617 117.52 30.4617C118 30.4617 118.307 30.8338 118.307 31.3741ZM119.006 31.3741C119.006 30.5671 118.373 29.9349 117.52 29.9349C116.667 29.9349 116.027 30.5671 116.027 31.3741C116.027 32.1811 116.66 32.8133 117.52 32.8133C118.38 32.8133 119.006 32.1878 119.006 31.3741ZM114.692 31.7911C114.557 32.0444 114.275 32.2551 113.948 32.2551C113.548 32.2551 113.211 31.9502 113.211 31.3741C113.211 30.798 113.548 30.4931 113.948 30.4931C114.275 30.4931 114.557 30.7038 114.692 30.9571V31.7911ZM115.707 32.6519V32.3784C115.665 32.403 115.621 32.4165 115.565 32.4165C115.461 32.4165 115.405 32.3492 115.405 32.1878V28.9015L114.692 28.9934V30.3833C114.459 30.1053 114.104 29.9618 113.746 29.9618C113.026 29.9618 112.5 30.5693 112.5 31.3763C112.5 32.1834 113.028 32.7886 113.746 32.7886C114.121 32.7886 114.501 32.6272 114.71 32.3425C114.772 32.6407 114.974 32.7774 115.299 32.7774C115.472 32.7774 115.643 32.7102 115.705 32.6541M109.949 31.9637C109.692 32.2237 109.39 32.3291 109.25 32.3291C109.072 32.3291 108.905 32.2618 108.905 32.0197C108.905 31.7171 109.312 31.4996 109.949 31.4369V31.9637ZM110.965 32.6586V32.3851C110.927 32.403 110.878 32.4232 110.822 32.4232C110.718 32.4232 110.663 32.3492 110.663 32.1878V30.9168C110.663 30.1793 110.183 29.9618 109.594 29.9618C109.243 29.9618 108.672 30.1479 108.457 30.2712V30.8047C108.728 30.6186 109.194 30.4572 109.476 30.4572C109.814 30.4572 109.949 30.6052 109.949 30.9213V31.0266C109.034 31.1073 108.272 31.4795 108.272 32.1049C108.272 32.5196 108.579 32.7864 108.965 32.7864C109.31 32.7864 109.665 32.6496 109.967 32.3537C110.029 32.6384 110.225 32.7752 110.556 32.7752C110.716 32.7752 110.882 32.7259 110.962 32.6564M108.021 32.5331L107.948 32.1744C107.861 32.2372 107.746 32.2977 107.568 32.2977C107.341 32.2977 107.266 32.1677 107.266 31.8628V30.5043H107.917V30.0335H107.266V29.3027L106.553 29.3946V30.0335H106.173V30.5043H106.553V31.9054C106.553 32.4994 106.842 32.7864 107.301 32.7864C107.601 32.7864 107.879 32.6631 108.019 32.5331M105.889 30.6612V29.9618C105.44 29.9618 105.053 30.2151 104.9 30.5267L104.869 29.982L104.218 30.0694V32.7169H104.931V31.253C104.931 30.7935 105.404 30.5469 105.889 30.6635M102.972 31.0087H101.834C101.897 30.594 102.154 30.4191 102.454 30.4191C102.823 30.4191 103.032 30.6859 102.97 31.0087M103.672 32.3605L103.474 32.0018C103.283 32.1497 102.994 32.2685 102.701 32.2685C101.977 32.2685 101.792 31.8157 101.803 31.3943H103.574C103.598 31.3068 103.616 31.1454 103.616 31.0289C103.616 30.3833 103.112 29.9618 102.436 29.9618C101.761 29.9618 101.097 30.5021 101.097 31.3562C101.097 32.2103 101.668 32.7886 102.485 32.7886C103.007 32.7886 103.418 32.6093 103.672 32.3605ZM99.9862 31.3741C99.9862 31.9502 99.6486 32.2551 99.2554 32.2551C98.9244 32.2551 98.64 32.0444 98.5067 31.7911V30.9594C98.6422 30.7061 98.9244 30.4953 99.2554 30.4953C99.6486 30.4953 99.9862 30.798 99.9862 31.3763M100.699 31.3741C100.699 30.5671 100.171 29.9596 99.4531 29.9596C99.0976 29.9596 98.74 30.103 98.5067 30.381V28.8992L97.7937 28.9911V32.755H98.2779L98.4556 32.3268C98.6822 32.625 99.0754 32.7864 99.4509 32.7864C100.171 32.7864 100.697 32.1789 100.697 31.3741M96.0898 31.2687H95.0035L95.55 29.917L96.0898 31.2687ZM97.4182 32.7146L95.8521 28.9956H95.2679L93.7017 32.7146H94.4259L94.8014 31.7978H96.2942L96.6696 32.7146H97.4182ZM91.5825 31.0087H90.4451C90.5073 30.594 90.765 30.4191 91.0649 30.4191C91.4336 30.4191 91.6425 30.6859 91.5803 31.0087M92.2822 32.3605L92.0845 32.0018C91.8935 32.1497 91.6047 32.2685 91.3115 32.2685C90.5873 32.2685 90.4029 31.8157 90.414 31.3943H92.1845C92.2089 31.3068 92.2267 31.1454 92.2267 31.0289C92.2267 30.3833 91.7224 29.9618 91.0471 29.9618C90.3718 29.9618 89.7076 30.5021 89.7076 31.3562C89.7076 32.2103 90.2785 32.7886 91.096 32.7886C91.618 32.7886 92.029 32.6093 92.2822 32.3605ZM88.3503 31.7911C88.2148 32.0444 87.9326 32.2551 87.6061 32.2551C87.2062 32.2551 86.8686 31.9502 86.8686 31.3741C86.8686 30.798 87.2062 30.4931 87.6061 30.4931C87.9326 30.4931 88.2148 30.7038 88.3503 30.9571V31.7911ZM89.3633 32.6519V32.3784C89.321 32.403 89.2766 32.4165 89.2211 32.4165C89.1167 32.4165 89.0611 32.3492 89.0611 32.1878V28.9015L88.348 28.9934V30.3833C88.1148 30.1053 87.7594 29.9618 87.4017 29.9618C86.6842 29.9618 86.1555 30.5693 86.1555 31.3763C86.1555 32.1834 86.6842 32.7886 87.4017 32.7886C87.7771 32.7886 88.157 32.6272 88.3658 32.3425C88.428 32.6407 88.6302 32.7774 88.9545 32.7774C89.1255 32.7774 89.2988 32.7102 89.361 32.6541M84.8115 31.9637C84.5538 32.2237 84.2517 32.3291 84.1117 32.3291C83.934 32.3291 83.7674 32.2618 83.7674 32.0197C83.7674 31.7171 84.1739 31.4996 84.8115 31.4369V31.9637ZM85.8245 32.6586V32.3851C85.7867 32.403 85.7378 32.4232 85.6823 32.4232C85.5779 32.4232 85.5224 32.3492 85.5224 32.1878V30.9168C85.5224 30.1793 85.0425 29.9618 84.4538 29.9618C84.1029 29.9618 83.5319 30.1479 83.3165 30.2712V30.8047C83.5875 30.6186 84.054 30.4572 84.3361 30.4572C84.6738 30.4572 84.8093 30.6052 84.8093 30.9213V31.0266C83.894 31.1073 83.1321 31.4795 83.1321 32.1049C83.1321 32.5196 83.4386 32.7864 83.8252 32.7864C84.1695 32.7864 84.5249 32.6496 84.827 32.3537C84.8892 32.6384 85.0847 32.7752 85.4157 32.7752C85.5757 32.7752 85.7423 32.7259 85.8223 32.6564M81.8259 31.7911C81.6904 32.0444 81.4082 32.2551 81.0817 32.2551C80.6818 32.2551 80.3442 31.9502 80.3442 31.3741C80.3442 30.798 80.6818 30.4931 81.0817 30.4931C81.4082 30.4931 81.6904 30.7038 81.8259 30.9571V31.7911ZM82.8388 32.6519V32.3784C82.7966 32.403 82.7522 32.4165 82.6967 32.4165C82.5923 32.4165 82.5367 32.3492 82.5367 32.1878V28.9015L81.8236 28.9934V30.3833C81.5904 30.1053 81.235 29.9618 80.8773 29.9618C80.1576 29.9618 79.6311 30.5693 79.6311 31.3763C79.6311 32.1834 80.1598 32.7886 80.8773 32.7886C81.2527 32.7886 81.6326 32.6272 81.8414 32.3425C81.9036 32.6407 82.1058 32.7774 82.4323 32.7774C82.6034 32.7774 82.7766 32.7102 82.8366 32.6541M79.0846 32.7146V29.9618L78.3715 30.0537V32.7146H79.0846ZM78.7292 28.9015C78.5203 28.9015 78.3537 29.0696 78.3537 29.2803C78.3537 29.491 78.5203 29.6524 78.7292 29.6524C78.938 29.6524 79.1046 29.4843 79.1046 29.2803C79.1046 29.0763 78.938 28.9015 78.7292 28.9015ZM77.8561 31.8695C77.8561 31.5108 77.574 31.1813 76.8743 31.0334C76.5921 30.9661 76.4077 30.8854 76.4077 30.7038C76.4077 30.5424 76.5499 30.4438 76.8387 30.4438C77.1031 30.4438 77.3785 30.5312 77.6073 30.6679L77.7251 30.1972C77.6384 30.1479 77.2586 29.9551 76.8209 29.9551C76.1012 29.9551 75.7769 30.3519 75.7769 30.7733C75.7769 31.1522 76.0101 31.4996 76.661 31.6409C77.0231 31.7283 77.2252 31.7955 77.2252 31.9883C77.2252 32.2125 77.0298 32.2977 76.7454 32.2977C76.3522 32.2977 76.0257 32.1296 75.8124 31.9995L75.6969 32.495C75.808 32.5622 76.2123 32.7976 76.7587 32.7976C77.4407 32.7976 77.8584 32.4434 77.8584 31.8673M75.4725 30.6612V29.9618C75.0238 29.9618 74.6372 30.2151 74.484 30.5267L74.4529 29.982L73.802 30.0694V32.7169H74.5151V31.253C74.5151 30.7935 74.9882 30.5469 75.4725 30.6635M72.5558 31.0087H71.4184C71.4806 30.594 71.7383 30.4191 72.0382 30.4191C72.4069 30.4191 72.6157 30.6859 72.5535 31.0087M73.2555 32.3605L73.0578 32.0018C72.8668 32.1497 72.578 32.2685 72.2847 32.2685C71.5605 32.2685 71.3762 31.8157 71.3873 31.3943H73.1555C73.18 31.3068 73.1978 31.1454 73.1978 31.0289C73.1978 30.3833 72.6935 29.9618 72.0182 29.9618C71.3428 29.9618 70.6786 30.5021 70.6786 31.3562C70.6786 32.2103 71.2495 32.7886 72.067 32.7886C72.5891 32.7886 73 32.6093 73.2533 32.3605M69.8767 30.0358L69.1525 31.7955L68.4216 30.0358H67.7219L68.8837 32.7146H69.3991L70.5542 30.0358H69.8767ZM67.3887 32.7146V29.9618L66.6756 30.0537V32.7146H67.3887ZM67.0332 28.9015C66.8244 28.9015 66.6578 29.0696 66.6578 29.2803C66.6578 29.491 66.8244 29.6524 67.0332 29.6524C67.2421 29.6524 67.4087 29.4843 67.4087 29.2803C67.4087 29.0763 67.2421 28.9015 67.0332 28.9015ZM65.9825 32.7146V31.1208C65.9825 30.4572 65.7181 29.9618 65.0117 29.9618C64.6052 29.9618 64.2075 30.1905 64.0298 30.5312L63.9987 29.9797L63.3478 30.0672V32.7146H64.0609V31.2194C64.0609 30.8473 64.4297 30.5379 64.7673 30.5379C65.105 30.5379 65.2716 30.7128 65.2716 31.2329V32.7146H65.9847H65.9825ZM62.6148 30.9975V28.9956H61.8839V30.9728C61.8839 31.7798 61.5396 32.1699 60.9376 32.1699C60.3356 32.1699 59.9912 31.7798 59.9912 30.9728V28.9956H59.2293V30.9975C59.2293 32.2551 59.9535 32.82 60.9242 32.82C61.895 32.82 62.6148 32.2551 62.6148 30.9975Z" fill="#16254C"/>
</svg>
