<svg width="42" height="25" viewBox="0 0 42 25" fill="none" xmlns="http://www.w3.org/2000/svg">
<path d="M11.5796 15.867C11.14 17.0995 10.4241 17.8143 9.43187 17.8143C9.17941 17.7969 8.93452 17.7222 8.71655 17.596C8.49857 17.4698 8.31347 17.2956 8.17587 17.0871C7.71841 16.4954 7.37374 15.8273 7.15851 15.1152C6.84931 14.1627 6.62655 13.1852 6.49283 12.1942C6.31409 11.0397 6.22174 9.87394 6.21651 8.70623C6.19594 7.46905 6.27996 6.23233 6.46771 5.00877C6.58198 4.20925 6.79715 3.42677 7.10827 2.67937C7.29568 2.20176 7.60231 1.77797 8.00003 1.44688C8.29607 1.22201 8.65592 1.09282 9.02995 1.07714C9.29386 1.08724 9.55225 1.15433 9.78672 1.27363C10.0212 1.39292 10.226 1.5615 10.3864 1.76733C10.8561 2.36358 11.1979 3.04695 11.3912 3.77628C11.7055 4.73023 11.9201 5.71305 12.0318 6.7096C12.1821 7.93658 12.2576 9.17126 12.2579 10.4071C12.3225 12.2668 12.0937 14.1251 11.5796 15.9163M1.07945 13.6362C1.43787 14.6874 2.0105 15.6561 2.7625 16.4832C3.51022 17.276 4.42249 17.9022 5.43778 18.3196C6.56552 18.7545 7.76808 18.9721 8.97971 18.9605C10.3298 18.9827 11.6707 18.7397 12.9236 18.2457C14.0024 17.8024 14.9614 17.1189 15.7244 16.2491C16.4939 15.3454 17.0666 14.2969 17.4075 13.1678C17.7947 11.8586 17.9851 10.5008 17.9727 9.1376C17.9758 7.94119 17.8066 6.75036 17.4703 5.60036C17.169 4.54882 16.6471 3.57068 15.938 2.72867C15.2101 1.89001 14.2945 1.22777 13.2627 0.793665C12.0268 0.287006 10.6954 0.043363 9.35651 0.0788224C8.15628 0.0780395 6.96548 0.286702 5.8397 0.695066C4.76979 1.09831 3.80453 1.72976 3.0137 2.5438C2.19407 3.42037 1.56576 4.45214 1.16737 5.57571C0.703133 6.93345 0.478019 8.35888 0.50169 9.79082C0.481677 11.0948 0.676785 12.3934 1.07945 13.6362Z" fill="#555555"/>
<path d="M33.8361 3.52983C33.5834 2.8981 33.1731 2.33872 32.6429 1.90295C32.0321 1.40906 31.3215 1.04782 30.558 0.843011C29.5538 0.584538 28.5188 0.460168 27.4808 0.473265H18.0859V1.42228L19.7438 1.59483V17.0502L18.0859 17.7527V18.5662H27.5436V17.6911L25.1948 17.6048V11.3315C25.4397 11.4216 25.6918 11.4916 25.9484 11.541C26.2922 11.6049 26.6411 11.6379 26.9909 11.6396C27.858 11.64 28.7222 11.5407 29.5657 11.3438C30.4005 11.1488 31.1921 10.8063 31.9019 10.3332C32.5836 9.83453 33.1453 9.19499 33.5473 8.45978C34.0165 7.56999 34.2456 6.57711 34.2129 5.57576C34.2144 4.87704 34.0867 4.18386 33.8361 3.52983ZM28.3223 9.34717C28.1006 9.69942 27.7868 9.98694 27.4135 10.1799C27.0402 10.3728 26.621 10.464 26.1996 10.4441C26.0032 10.4386 25.8086 10.4054 25.6219 10.3455C25.438 10.2916 25.261 10.2171 25.0944 10.1236V1.49623H25.961C26.4288 1.46733 26.8955 1.56744 27.3084 1.78524C27.7212 2.00305 28.0637 2.32986 28.2972 2.72872C28.8068 3.68092 29.0537 4.74744 29.0131 5.82226C29.1067 7.05654 28.8548 8.29247 28.2846 9.39647L28.3223 9.34717Z" fill="#555555"/>
<path d="M37.5161 17.3337L37.9557 14.462C37.9404 14.1563 37.8098 13.8671 37.5893 13.6507C37.3687 13.4343 37.074 13.3061 36.7625 13.2912H36.461C36.1495 13.3061 35.8547 13.4343 35.6342 13.6507C35.4136 13.8671 35.283 14.1563 35.2678 14.462L34.8282 17.3337H31.6756C31.3535 17.3496 31.05 17.4864 30.8278 17.7158C30.6057 17.9452 30.482 18.2497 30.4824 18.5662V18.8497C30.4977 19.1554 30.6283 19.4446 30.8488 19.661C31.0694 19.8775 31.3641 20.0056 31.6756 20.0206H34.4137L33.9741 22.9046C33.9893 23.2103 34.1199 23.4995 34.3405 23.7159C34.5611 23.9323 34.8558 24.0605 35.1673 24.0754H35.4562C35.7787 24.0758 36.089 23.9545 36.3229 23.7365C36.5567 23.5185 36.6961 23.2207 36.7122 22.9046L37.1644 20.0206H40.3044C40.4615 20.0222 40.6175 19.993 40.763 19.9348C40.9085 19.8765 41.0407 19.7903 41.1519 19.6813C41.263 19.5722 41.3508 19.4425 41.4102 19.2997C41.4696 19.1569 41.4993 19.0039 41.4976 18.8497V18.5662C41.508 18.4069 41.4847 18.2473 41.4293 18.0972C41.3738 17.9471 41.2874 17.81 41.1753 17.6942C41.0633 17.5785 40.9281 17.4868 40.7782 17.4247C40.6284 17.3627 40.467 17.3317 40.3044 17.3337H37.5161Z" fill="#FBB03B"/>
</svg>
