<svg width="20" height="21" viewBox="0 0 20 21" fill="none" xmlns="http://www.w3.org/2000/svg">
<path fill-rule="evenodd" clip-rule="evenodd" d="M17.0501 2.9754C15.1501 1.0754 12.65 0.0754395 10.05 0.0754395C4.55005 0.0754395 0.150055 4.4754 0.150055 9.9754C0.150055 11.6754 0.650043 13.4754 1.45004 14.9754L0.0500488 20.0754L5.35007 18.6754C6.75007 19.4754 8.45005 19.8754 10.05 19.8754C15.55 19.8754 19.95 15.4754 19.95 9.9754C19.95 7.2754 18.9501 4.7754 17.0501 2.9754ZM10.05 18.1754C8.55005 18.1754 7.15007 17.7754 5.85007 17.0754L5.55005 16.8754L2.45004 17.6754L3.25006 14.6754L3.05005 14.3754C2.25005 13.0754 1.75006 11.5754 1.75006 9.9754C1.75006 5.4754 5.45004 1.77539 9.95004 1.77539C12.15 1.77539 14.25 2.67542 15.75 4.17542C17.35 5.77541 18.1501 7.7754 18.1501 9.9754C18.3501 14.4754 14.65 18.1754 10.05 18.1754ZM14.5501 11.9754C14.3501 11.8754 13.0501 11.2754 12.8501 11.1754C12.6501 11.0754 12.4501 11.0754 12.2501 11.2754C12.0501 11.4754 11.65 12.0754 11.45 12.2754C11.35 12.4754 11.15 12.4754 10.95 12.3754C10.75 12.2754 9.95004 11.9754 8.95004 11.1754C8.25004 10.4754 7.75005 9.6754 7.55005 9.4754C7.45005 9.2754 7.55006 9.0754 7.65005 8.9754C7.75005 8.8754 7.85005 8.67544 8.05005 8.57544C8.15005 8.47544 8.25006 8.37541 8.25006 8.17542C8.35006 7.97542 8.25006 7.87539 8.25006 7.77539C8.15006 7.67539 7.65004 6.4754 7.45004 5.9754C7.25004 5.4754 7.05007 5.57544 6.85007 5.57544C6.75007 5.57544 6.55007 5.57544 6.35007 5.57544C6.15007 5.57544 5.95006 5.67543 5.65005 5.87543C5.45006 6.07543 4.75006 6.6754 4.75006 7.9754C4.75006 9.1754 5.65006 10.3754 5.75006 10.5754C5.85006 10.7754 7.45004 13.2754 9.95004 14.2754C10.55 14.5754 11.0501 14.6754 11.3501 14.7754C11.9501 14.9754 12.45 14.9754 12.95 14.8754C13.45 14.7754 14.4501 14.2754 14.6501 13.6754C14.8501 13.0754 14.85 12.5754 14.75 12.4754C15.05 12.1754 14.8501 12.1754 14.5501 11.9754Z" fill="#999999"/>
</svg>
