<svg width="20" height="15" viewBox="0 0 20 15" fill="none" xmlns="http://www.w3.org/2000/svg">
<path d="M19.6 2.27521C19.4 1.37521 18.7 0.77522 17.8 0.47522C16.2 0.0752197 10 0.0751953 10 0.0751953C10 0.0751953 3.69998 0.0752197 2.19998 0.47522C1.29998 0.67522 0.699994 1.37521 0.399994 2.27521C-6.10948e-06 3.87521 0 7.0752 0 7.0752C0 7.0752 -6.10948e-06 10.3752 0.399994 11.8752C0.599994 12.7752 1.29998 13.3752 2.19998 13.6752C3.79998 14.0752 10 14.0752 10 14.0752C10 14.0752 16.3 14.0752 17.8 13.6752C18.7 13.4752 19.3 12.7752 19.6 11.8752C20 10.2752 20 7.0752 20 7.0752C20 7.0752 20 3.87521 19.6 2.27521ZM8 10.1752V4.17523L13.2 7.17523L8 10.1752Z" fill="white"/>
</svg>
