<svg xmlns="http://www.w3.org/2000/svg" width="235" height="57" viewBox="0 0 235 57"><rect width="100%" height="100%" fill="#DDDDDD"/><path fill="#999999" d="M68.78 35.655h5.38q.58 0 .92.32.34.33.34.86v2.15H61.04v-1.19q0-.36.15-.76t.48-.72l6.37-6.38q.8-.81 1.43-1.55t1.05-1.46q.42-.73.64-1.48.23-.74.23-1.57 0-.75-.22-1.33-.22-.57-.62-.96-.39-.39-.95-.59-.56-.19-1.26-.19-.63 0-1.18.18-.54.18-.96.51-.42.32-.71.76-.29.43-.44.95-.24.67-.64.89-.39.22-1.13.1l-1.88-.33q.22-1.51.84-2.65t1.56-1.9q.93-.76 2.14-1.14 1.21-.39 2.61-.39 1.45 0 2.65.43t2.06 1.21q.85.78 1.33 1.88.48 1.11.48 2.45 0 1.16-.34 2.15t-.91 1.89q-.58.9-1.34 1.74-.77.84-1.61 1.71l-4.73 4.83q.68-.21 1.35-.32.68-.1 1.29-.1m11.42-11.46-1.88-.33q.22-1.51.84-2.65t1.56-1.9q.93-.76 2.14-1.14 1.22-.39 2.61-.39 1.45 0 2.61.41 1.17.42 2 1.15t1.27 1.72q.44.98.44 2.13 0 1-.23 1.76-.22.76-.64 1.33-.42.56-1.04.95-.63.4-1.41.66 1.88.59 2.81 1.81t.93 3.06q0 1.57-.58 2.77t-1.57 2.02q-.98.82-2.28 1.24t-2.75.42q-1.58 0-2.75-.36-1.18-.36-2.05-1.07t-1.48-1.74q-.6-1.03-1.04-2.38l1.58-.65q.62-.27 1.17-.14.54.12.79.59.26.5.57 1 .31.49.75.87.43.39 1.02.63t1.4.24q.91 0 1.59-.3.69-.3 1.14-.78.46-.48.68-1.06.23-.59.23-1.18 0-.76-.16-1.37-.16-.62-.67-1.06-.51-.43-1.46-.68-.94-.24-2.54-.24v-2.56q1.32-.01 2.19-.24t1.38-.65q.52-.41.72-.99.21-.58.21-1.28 0-1.48-.83-2.24-.83-.77-2.21-.77-.63 0-1.17.18t-.96.51q-.43.32-.72.76-.29.43-.44.95-.24.67-.64.89t-1.13.1m20-2.93-.74 4.37q.7-.15 1.33-.21.64-.07 1.24-.07 1.65 0 2.91.49 1.26.5 2.12 1.37.85.87 1.29 2.03.43 1.17.43 2.52 0 1.67-.58 3.04-.59 1.38-1.63 2.36-1.05.98-2.48 1.52-1.43.53-3.11.53-.98 0-1.87-.2-.88-.2-1.66-.54-.77-.35-1.43-.79t-1.19-.93l1.11-1.53q.34-.49.91-.49.36 0 .74.23.38.24.86.51.49.28 1.15.51t1.59.23q.98 0 1.74-.32.75-.32 1.25-.89t.75-1.36q.26-.79.26-1.72 0-1.71-1-2.68-.99-.96-2.93-.96-1.5 0-3.06.55l-2.23-.64 1.74-10.18h10.35v1.53q0 .76-.48 1.24t-1.62.48zm32.49 12.92-1.9 1.87-4.91-4.91-4.96 4.94-1.9-1.87 4.96-4.97-4.73-4.73 1.89-1.89 4.72 4.73 4.7-4.7 1.92 1.89-4.72 4.71zm15.24-12.92-.74 4.37q.7-.15 1.34-.21.64-.07 1.23-.07 1.65 0 2.92.49 1.26.5 2.11 1.37.86.87 1.29 2.03.44 1.17.44 2.52 0 1.67-.59 3.04-.59 1.38-1.63 2.36t-2.47 1.52q-1.43.53-3.11.53-.99 0-1.87-.2-.89-.2-1.66-.54-.78-.35-1.44-.79t-1.18-.93l1.1-1.53q.35-.49.91-.49.37 0 .74.23.38.24.87.51.48.28 1.14.51t1.59.23q.99 0 1.74-.32t1.25-.89.76-1.36q.25-.79.25-1.72 0-1.71-.99-2.68-.99-.96-2.94-.96-1.49 0-3.06.55l-2.23-.64 1.74-10.18h10.35v1.53q0 .76-.48 1.24-.47.48-1.62.48zm11.55-3.25h14.48v1.55q0 .7-.14 1.13-.15.43-.29.72l-7.95 16.35q-.25.51-.7.86-.45.36-1.2.36h-2.59l8.1-16.02q.28-.5.54-.91.27-.41.61-.79H160.3q-.33 0-.58-.25-.24-.24-.24-.58z"/></svg>