<svg xmlns="http://www.w3.org/2000/svg" width="26" height="28" viewBox="0 0 26 28"><rect width="100%" height="100%" fill="#DDDDDD"/><path fill="#999999" d="M6.065 15.23h.93q.1 0 .16.06t.06.15v.37h-2.49v-.21q0-.06.03-.13t.09-.12l1.09-1.1q.14-.14.25-.27t.18-.25q.07-.13.11-.25.04-.13.04-.27 0-.13-.04-.23-.03-.1-.1-.17t-.17-.1q-.09-.04-.21-.04t-.21.04q-.09.03-.16.08-.08.06-.13.13-.05.08-.07.17-.05.12-.11.15-.07.04-.2.02l-.32-.06q.03-.26.14-.45.11-.2.27-.33t.37-.2.45-.07q.25 0 .46.08.21.07.35.21.15.13.23.32t.08.42q0 .2-.05.38-.06.17-.16.32t-.23.3l-.28.3-.81.83q.11-.04.23-.06t.22-.02m3.75-3.04-1.07 1.32-.12.15q.1-.05.22-.08t.26-.03q.21 0 .4.07.2.07.34.2.15.14.24.34t.09.47q0 .26-.09.48t-.26.38q-.17.17-.41.26-.23.1-.52.1t-.52-.09-.39-.26-.25-.4q-.08-.24-.08-.52 0-.26.1-.52.1-.27.32-.56l.86-1.16q.05-.06.13-.1.09-.05.2-.05zm-.93 3.15q.15 0 .27-.05.13-.05.21-.14.09-.08.14-.21.05-.12.05-.26 0-.15-.04-.28-.05-.12-.14-.21t-.21-.13-.27-.04-.27.04q-.12.05-.2.14-.09.09-.13.21-.05.12-.05.26 0 .16.04.28t.12.21.2.14q.12.04.28.04m5.3-.36-.33.32-.84-.84-.86.85-.33-.32.86-.86-.82-.82.33-.32.81.82.81-.81.33.32-.81.81zm3.01.25h.93q.1 0 .16.06t.06.15v.37h-2.48v-.21q0-.06.02-.13.03-.07.09-.12l1.09-1.1q.14-.14.25-.27t.18-.25q.07-.13.11-.25.04-.13.04-.27 0-.13-.04-.23-.03-.1-.1-.17t-.17-.1q-.09-.04-.21-.04-.11 0-.21.04-.09.03-.16.08-.08.06-.13.13-.05.08-.07.17-.04.12-.11.15-.07.04-.2.02l-.32-.06q.04-.26.14-.45.11-.2.27-.33t.37-.2.45-.07q.25 0 .46.08.21.07.35.21.15.13.23.32.09.19.09.42 0 .2-.06.38-.06.17-.16.32t-.23.3l-.28.3-.81.83q.11-.04.23-.06t.22-.02m2.83.14q.15 0 .26-.05.12-.04.2-.12t.12-.18q.03-.11.03-.23 0-.3-.16-.46-.16-.15-.45-.15t-.46.15q-.16.16-.16.46 0 .12.04.23.04.1.11.18.08.08.2.12.11.05.27.05m0-2.75q-.14 0-.24.04-.1.05-.17.12t-.1.16-.03.19q0 .11.03.21t.09.18.16.13q.11.05.26.05t.25-.05.16-.13q.07-.08.09-.18.03-.1.03-.21 0-.1-.03-.19-.04-.09-.1-.16-.07-.07-.17-.12-.1-.04-.23-.04m.61 1.3q.33.11.48.33.16.23.16.54 0 .24-.09.44-.09.19-.26.33-.16.14-.39.21-.24.08-.51.08-.28 0-.52-.08-.23-.07-.39-.21-.17-.14-.26-.33-.09-.2-.09-.44 0-.31.16-.54.16-.22.49-.33-.27-.11-.4-.31t-.13-.49q0-.2.08-.38.09-.18.24-.31t.36-.2q.21-.08.46-.08t.45.08q.21.07.36.2t.24.31q.08.18.08.38 0 .29-.13.49t-.39.31"/></svg>