<svg xmlns="http://www.w3.org/2000/svg" width="366" height="244" viewBox="0 0 366 244"><rect width="100%" height="100%" fill="#DDDDDD"/><path fill="#999999" d="m77.265 114.725-3.18-.56q.37-2.55 1.42-4.47 1.05-1.93 2.63-3.21 1.58-1.29 3.63-1.94t4.4-.65q2.45 0 4.42.7t3.37 1.93q1.39 1.24 2.14 2.91.75 1.66.75 3.6 0 1.69-.38 2.98-.38 1.28-1.09 2.24-.71.95-1.76 1.61-1.06.67-2.38 1.11 3.18 1 4.75 3.06t1.57 5.17q0 2.65-.98 4.68t-2.65 3.42q-1.66 1.38-3.85 2.09-2.2.71-4.65.71-2.67 0-4.65-.61-1.99-.61-3.46-1.81t-2.5-2.94-1.76-4.02l2.67-1.1q1.05-.45 1.97-.24t1.34 1q.44.85.97 1.69.52.83 1.26 1.48.73.65 1.72 1.05 1 .41 2.37.41 1.54 0 2.69-.51 1.16-.5 1.93-1.31t1.15-1.8.38-1.99q0-1.28-.27-2.32t-1.13-1.78q-.86-.73-2.46-1.15-1.61-.41-4.3-.41v-4.32q2.23-.02 3.7-.41t2.34-1.09 1.21-1.68.34-2.16q0-2.5-1.39-3.79-1.4-1.3-3.73-1.3-1.07 0-1.98.3-.91.31-1.63.86t-1.21 1.29q-.49.73-.74 1.61-.41 1.13-1.09 1.5-.67.37-1.9.17m45.89-10.44-10.51 12.87-1.22 1.51q1.03-.51 2.21-.79 1.19-.28 2.56-.28 2.01 0 3.91.66t3.35 1.99q1.44 1.34 2.32 3.32.89 1.99.89 4.63 0 2.48-.91 4.65t-2.55 3.78q-1.64 1.62-3.96 2.55-2.31.93-5.1.93-2.85 0-5.1-.9-2.25-.91-3.85-2.54-1.59-1.63-2.43-3.92-.85-2.29-.85-5.08 0-2.5 1.02-5.14 1.01-2.63 3.15-5.47l8.45-11.35q.44-.58 1.28-1 .85-.42 1.95-.42zm-9.14 30.87q1.45 0 2.66-.49t2.08-1.37 1.36-2.07.49-2.58q0-1.52-.46-2.74-.47-1.21-1.32-2.05-.86-.85-2.06-1.29t-2.65-.44q-1.44 0-2.62.49t-2.01 1.36-1.3 2.06q-.46 1.18-.46 2.56 0 1.47.4 2.68.41 1.21 1.2 2.07.8.86 1.97 1.34 1.18.47 2.72.47m37.56-30.87-10.51 12.87-1.22 1.51q1.03-.51 2.21-.79 1.19-.28 2.56-.28 2.01 0 3.91.66t3.35 1.99q1.44 1.34 2.32 3.32.89 1.99.89 4.63 0 2.48-.91 4.65t-2.55 3.78q-1.64 1.62-3.96 2.55-2.31.93-5.1.93-2.85 0-5.1-.9-2.25-.91-3.85-2.54-1.59-1.63-2.43-3.92-.85-2.29-.85-5.08 0-2.5 1.02-5.14 1.01-2.63 3.15-5.47l8.45-11.35q.44-.58 1.28-1 .85-.42 1.95-.42zm-9.14 30.87q1.45 0 2.66-.49t2.08-1.37 1.36-2.07.49-2.58q0-1.52-.46-2.74-.47-1.21-1.32-2.05-.86-.85-2.06-1.29t-2.65-.44q-1.44 0-2.62.49t-2.01 1.36-1.3 2.06q-.46 1.18-.46 2.56 0 1.47.4 2.68.41 1.21 1.2 2.07.8.86 1.97 1.34 1.18.47 2.72.47m51.94-3.55-3.21 3.16-8.3-8.3-8.38 8.35-3.21-3.16 8.38-8.4-7.99-7.99 3.19-3.19 7.98 7.99 7.94-7.94 3.24 3.19-7.97 7.96zm29.5 2.48h9.09q.98 0 1.56.55.57.55.57 1.45v3.63h-24.3v-2.01q0-.61.26-1.29.25-.67.82-1.21l10.75-10.78q1.35-1.37 2.42-2.62 1.06-1.25 1.77-2.47.71-1.23 1.09-2.49t.38-2.66q0-1.27-.37-2.24-.36-.97-1.04-1.63-.67-.66-1.61-.99-.95-.33-2.12-.33-1.08 0-2 .3-.92.31-1.63.86t-1.2 1.29q-.49.73-.73 1.61-.42 1.13-1.08 1.5t-1.91.17l-3.19-.56q.37-2.55 1.42-4.47 1.06-1.93 2.64-3.21 1.58-1.29 3.62-1.94 2.05-.65 4.4-.65 2.45 0 4.48.72 2.04.73 3.48 2.05 1.45 1.32 2.26 3.18.8 1.87.8 4.14 0 1.96-.57 3.63-.58 1.67-1.54 3.19-.97 1.52-2.27 2.94t-2.72 2.89l-7.99 8.16q1.15-.35 2.29-.53t2.17-.18m20.14-7.72h10.78v-11.59q0-1.64.22-3.63zm16.05 0h4.46v3.5q0 .49-.32.85-.32.35-.91.35h-3.23v8.65h-5.27v-8.65h-14.94q-.62 0-1.08-.38-.47-.38-.59-.94l-.64-3.06 16.79-22.42h5.73zm12.37 0h10.78v-11.59q0-1.64.22-3.63zm16.05 0h4.46v3.5q0 .49-.32.85-.32.35-.91.35h-3.23v8.65h-5.27v-8.65h-14.94q-.62 0-1.08-.38-.47-.38-.59-.94l-.64-3.06 16.79-22.42h5.73z"/></svg>